<?xml version="1.0" encoding="UTF-8"?>
<svg id="Layer_1" data-name="Layer 1" xmlns="http://www.w3.org/2000/svg" viewBox="0 0 2238.56 554.15">
  <defs>
    <style>
      .cls-1 {
        fill: #c2a061;
      }

      .cls-2 {
        fill: #112240;
      }
    </style>
  </defs>
  <g>
    <path class="cls-2" d="M719.25,351.09h-14.6v-114.42h-42.89v-13.32h100.37v13.32h-42.89v114.42Z"/>
    <path class="cls-2" d="M878.58,236.49h-77.93v43.62h69.71v13.14h-69.71v44.71h78.84v13.14h-93.26v-127.74h92.34v13.14Z"/>
    <path class="cls-2" d="M961.05,353.28c-36.86,0-64.05-29.01-64.05-65.88s27.01-66.24,64.6-66.24c23.18,0,37.04,8.21,49.82,20.25l-9.85,10.59c-10.77-10.22-22.81-17.52-40.15-17.52-28.29,0-49.46,22.81-49.46,52.56s21.35,52.92,49.46,52.92c17.52,0,29.01-6.75,41.24-18.43l9.49,9.31c-13.32,13.51-27.92,22.45-51.1,22.45Z"/>
    <path class="cls-2" d="M1050.84,293.61v57.48h-14.42v-127.74h14.42v56.75h73.73v-56.75h14.41v127.74h-14.41v-57.48h-73.73Z"/>
    <path class="cls-2" d="M1269.43,223.35h14.05v127.74h-11.5l-82.49-104.75v104.75h-14.05v-127.74h13.51l80.48,102.38v-102.38Z"/>
    <path class="cls-2" d="M1378.4,353.28c-38.87,0-64.97-30.47-64.97-65.88s26.46-66.24,65.33-66.24,64.97,30.47,64.97,65.88-26.46,66.24-65.33,66.24ZM1378.4,234.48c-29.2,0-50,23.36-50,52.56s21.17,52.92,50.37,52.92,50-23.36,50-52.56-21.17-52.92-50.37-52.92Z"/>
    <path class="cls-2" d="M1473.76,223.35h14.42v114.42h71.9v13.32h-86.32v-127.74Z"/>
    <path class="cls-2" d="M1636.31,353.28c-38.87,0-64.97-30.47-64.97-65.88s26.46-66.24,65.33-66.24,64.97,30.47,64.97,65.88-26.46,66.24-65.33,66.24ZM1636.31,234.48c-29.2,0-50,23.36-50,52.56s21.17,52.92,50.37,52.92,50-23.36,50-52.56-21.17-52.92-50.37-52.92Z"/>
    <path class="cls-2" d="M1789.75,353.28c-40.15,0-64.97-29.2-64.97-65.88s25.73-66.24,64.05-66.24c21.54,0,34.86,6.2,47.63,16.97l-9.31,10.95c-9.85-8.57-20.8-14.6-38.87-14.6-28.29,0-48.54,23.9-48.54,52.56,0,30.66,19.53,53.29,50.55,53.29,14.6,0,28.1-5.66,36.86-12.78v-31.75h-38.87v-12.95h52.74v50.92c-11.86,10.58-29.75,19.52-51.28,19.52Z"/>
    <path class="cls-2" d="M1889.31,223.35v127.74h-14.42v-127.74h14.42Z"/>
    <path class="cls-2" d="M2018.39,236.49h-77.93v43.62h69.71v13.14h-69.71v44.71h78.84v13.14h-93.26v-127.74h92.34v13.14Z"/>
    <path class="cls-2" d="M2093.4,280.29c28.47,6.2,41.61,16.61,41.61,36.31,0,22.08-18.25,36.32-43.62,36.32-20.26,0-36.86-6.75-52.2-20.44l8.95-10.58c13.32,12.05,26.09,18.06,43.8,18.06s28.47-8.94,28.47-21.9c0-12.05-6.39-18.8-33.21-24.46-29.38-6.39-42.89-15.88-42.89-37.05s17.7-35.04,41.97-35.04c18.62,0,31.94,5.29,44.89,15.7l-8.39,11.13c-11.86-9.67-23.72-13.87-36.86-13.87-16.61,0-27.19,9.12-27.19,20.8s6.57,18.98,34.67,25Z"/>
  </g>
  <rect class="cls-1" x="571.15" y="90.33" width="16.76" height="388.43"/>
  <g>
    <path class="cls-2" d="M336.07,288.09c-5.33-12.74-13.12-24.52-23.15-35.01-11.37-11.85-22.85-19.61-37.2-25.22-15.92-6.2-34.08-9.35-53.97-9.35-17.05,0-33.63,3.07-49.26,9.11-13.8,5.36-25.72,13.11-33.97,22.02v-99.38h189.95v-22.56H114.81v152.07l26.79,1.71.84-1.18c18.1-25.89,41.97-37.43,77.42-37.43,30.53,0,54.59,8.34,71.51,24.8,16.92,16.48,25.66,36.54,25.97,59.67.59,23.97-7.84,44.92-25.07,62.23-18.44,18.56-37.97,26.13-67.43,26.13-21.65,0-42.56-5.7-60.46-16.47-18.01-10.86-30.48-25.27-37.04-42.86l-1.68-4.5-22.74,14.85,1.22,2.87c9.4,22.19,25.31,39.91,47.31,52.68,21.53,12.53,46.91,19.15,73.4,19.15,21.4,0,35.19-3.66,50.49-9.57,17.77-6.91,28.46-16.43,37.37-25.69,10.18-10.58,18.05-22.68,23.39-35.95,5.33-13.23,8.04-27.38,8.04-42.05,0-13.75-2.71-27.23-8.05-40.05Z"/>
    <path class="cls-2" d="M414.77,252.57c-8.68,0-16.45-2.18-23.32-6.56-6.87-4.38-12.48-10.06-16.82-17.06l-16.49,15.75c4.77,9.34,12.33,16.71,22.67,22.1,10.34,5.4,21.66,8.09,33.95,8.09,17.93,0,32.36-4.85,43.28-14.55,10.92-9.7,16.38-21.12,16.38-34.24,0-11.52-4.3-21.47-12.91-29.86-8.61-8.39-19.27-12.58-32-12.58l36.88-36.54v-18.82l-100.44-.22v22.53h70.07l-36.88,35.88,6.29,9.84h9.33c9.55,0,17.57,2.74,24.08,8.21,6.51,5.47,9.76,12.07,9.76,19.8s-3.22,14.37-9.65,19.91c-6.43,5.54-14.5,8.31-24.19,8.31Z"/>
    <path class="cls-2" d="M423.01,335.03c-7.52,0-14.18,1.53-19.96,4.59l28.27-41.14h-25.82l-39.55,56.68c-6.8,9.62-10.2,19.98-10.2,31.07,0,15.61,5.78,28.48,17.35,38.62,11.57,10.13,25.6,15.2,42.09,15.2s30.3-5.07,41.87-15.2c11.57-10.14,17.35-23.01,17.35-38.62,0-14.01-4.92-26.04-14.75-36.1-9.84-10.07-22.06-15.1-36.66-15.1ZM439.07,408.77c-6.51,5.98-14.46,8.96-23.86,8.96s-17.43-2.98-24.08-8.96c-6.65-5.98-9.98-13.35-9.98-22.1s3.33-16.12,9.98-22.1c6.65-5.98,14.68-8.97,24.08-8.97s17.17,2.99,23.75,8.97c6.58,5.98,9.87,13.35,9.87,22.1s-3.25,16.12-9.76,22.1Z"/>
  </g>
</svg>